<?xml version="1.0" encoding="UTF-8" standalone="no"?>
<!-- Created with Inkscape (http://www.inkscape.org/) -->

<svg
   width="512"
   height="512"
   viewBox="0 0 512 512"
   version="1.1"
   id="svg1"
   inkscape:version="1.3.2 (091e20e, 2023-11-25, custom)"
   sodipodi:docname="icon.svg"
   xmlns:inkscape="http://www.inkscape.org/namespaces/inkscape"
   xmlns:sodipodi="http://sodipodi.sourceforge.net/DTD/sodipodi-0.dtd"
   xmlns="http://www.w3.org/2000/svg"
   xmlns:svg="http://www.w3.org/2000/svg">
  <sodipodi:namedview
     id="namedview1"
     pagecolor="#505050"
     bordercolor="#eeeeee"
     borderopacity="1"
     inkscape:showpageshadow="0"
     inkscape:pageopacity="0"
     inkscape:pagecheckerboard="0"
     inkscape:deskcolor="#505050"
     inkscape:document-units="px"
     inkscape:zoom="1.6310412"
     inkscape:cx="370.62215"
     inkscape:cy="328.93099"
     inkscape:window-width="2560"
     inkscape:window-height="1377"
     inkscape:window-x="-8"
     inkscape:window-y="-8"
     inkscape:window-maximized="1"
     inkscape:current-layer="layer1" />
  <defs
     id="defs1">
    <rect
       x="160.40644"
       y="182.95004"
       width="303.51106"
       height="248.84674"
       id="rect4" />
    <rect
       x="234.79299"
       y="256"
       width="181.04201"
       height="154.12024"
       id="rect3" />
  </defs>
  <g
     inkscape:label="Layer 1"
     inkscape:groupmode="layer"
     id="layer1">
    <circle
       style="fill:#4f59fd;stroke:none;stroke-width:1.88976;fill-opacity:1"
       id="path1"
       cx="256"
       cy="256"
       r="256" />
    <ellipse
       style="fill:#000000;fill-opacity:1;stroke:none;stroke-width:1.27129"
       id="path1-1"
       cx="256"
       cy="256"
       rx="173.08722"
       ry="171.35309" />
    <path
       style="fill:#000000;fill-opacity:1;stroke:none;stroke-width:1.40456"
       d="M 234.79299,256 415.835,56.028074 V 455.97193 Z"
       id="path2" />
    <path
       style="fill:#000005;fill-opacity:1;stroke:none;stroke-width:1.88976"
       d="m 415.835,56.028074 c 0,0 96.165,67.047416 96.165,199.971926 0,132.05746 -96.165,199.97193 -96.165,199.97193 z"
       id="path3"
       sodipodi:nodetypes="cscc" />
    <path
       style="font-size:96px;font-family:Calibri;-inkscape-font-specification:Calibri;white-space:pre;fill:#ffffff;stroke-width:8.20765"
       d="m 332.72267,142.69897 q 0,7.04912 -2.05796,10.27159 -1.85215,3.02108 -4.93912,3.02108 h -26.54775 q 7.20286,7.25055 10.08401,16.11234 2.88116,8.66035 2.88116,18.12637 0,15.70953 -5.1449,27.79378 -5.14494,12.08425 -14.81736,20.54322 -9.46664,8.25755 -22.63763,12.68844 -13.17098,4.43089 -29.22312,4.43089 -11.31884,0 -21.60867,-2.81965 -10.08401,-3.02104 -15.64055,-7.45194 -3.70434,3.62528 -6.1739,8.25755 -2.26374,4.63232 -2.26374,10.67445 0,7.04912 6.5855,11.68144 6.79126,4.63227 17.90428,5.03508 l 48.36224,2.01404 q 13.78835,0.40259 25.31297,3.8267 11.5246,3.22247 19.96229,9.46598 8.43764,6.04212 13.17098,15.10533 4.73331,8.86178 4.73331,20.74461 0,12.48706 -5.35072,23.76569 -5.35071,11.27863 -16.46373,19.73761 -10.9072,8.6604 -27.98834,13.4941 -17.0811,5.03508 -40.33615,5.03508 -22.43181,0 -38.27817,-3.82666 -15.64055,-3.62527 -25.72456,-10.07021 -10.08406,-6.44493 -14.61158,-15.50814 -4.52753,-8.86178 -4.52753,-19.3348 0,-6.6463 1.64638,-12.88986 1.64637,-6.24351 4.93911,-11.88283 3.49857,-5.63931 8.43769,-10.67444 5.14489,-5.23651 11.73038,-10.27159 -10.08401,-5.03513 -15.02313,-12.68849 -4.73335,-7.65335 -4.73335,-16.51514 0,-12.28562 5.14494,-21.95303 5.1449,-9.6674 12.75939,-17.32076 -6.37971,-7.45197 -10.08405,-16.71657 -3.70434,-9.46597 -3.70434,-22.75864 0,-15.50815 5.35071,-27.79378 5.35071,-12.28568 14.81736,-20.74465 9.46664,-8.45897 22.63763,-12.88987 13.3768,-4.63227 29.01735,-4.63227 8.43764,0 15.64054,1.007 7.40868,0.80562 13.78836,2.41685 h 55.97669 q 3.49856,0 5.14493,3.42389 1.85215,3.22247 1.85215,10.07021 z m -53.09553,47.73276 q 0,-18.52918 -10.49561,-28.80077 -10.28983,-10.47302 -29.42894,-10.47302 -9.87824,0 -17.28692,3.22247 -7.20286,3.22247 -12.14198,8.86178 -4.73335,5.63932 -7.20291,13.09125 -2.26374,7.25055 -2.26374,15.30672 0,17.92499 10.28984,28.19658 10.4956,10.27164 29.22312,10.27164 10.08401,0 17.49269,-3.02109 7.40868,-3.22246 12.14203,-8.66035 4.93912,-5.63932 7.20286,-12.88987 2.46956,-7.25055 2.46956,-15.10534 z m 17.08114,143.6012 q 0,-11.68144 -9.87824,-17.925 -9.67246,-6.44493 -26.34197,-6.84774 l -47.95064,-1.61123 q -6.58549,5.03513 -10.9072,9.6674 -4.11593,4.43089 -6.58549,8.45897 -2.46956,4.22951 -3.49857,8.2576 -0.82318,4.02808 -0.82318,8.25755 0,13.09129 13.58257,19.7376 13.58258,6.84775 37.86659,6.84775 15.43477,0 25.7246,-3.02104 10.49562,-2.81966 16.87532,-7.65336 6.37968,-4.8337 9.05506,-11.07725 2.88115,-6.24351 2.88115,-13.09125 z"
       id="text3"
       aria-label="g" />
  </g>
</svg>
